<svg width="20" height="20" viewBox="0 0 20 20" fill="none" xmlns="http://www.w3.org/2000/svg">
<path d="M12.45 4.32496C12.765 3.96186 13.0052 3.5401 13.1568 3.08391C13.3084 2.62771 13.3684 2.14607 13.3333 1.66663C12.3661 1.7447 11.4683 2.19959 10.8333 2.93329C10.5292 3.28494 10.2988 3.69403 10.1557 4.13633C10.0125 4.57863 9.95958 5.04516 9.99999 5.50829C10.4718 5.51222 10.9381 5.40754 11.363 5.20234C11.7878 4.99714 12.1598 4.69694 12.45 4.32496ZM14.55 10.525C14.5556 9.88641 14.7238 9.25981 15.0387 8.7043C15.3536 8.14878 15.8049 7.68267 16.35 7.34996C16.006 6.85433 15.5513 6.44565 15.0219 6.15635C14.4924 5.86706 13.9029 5.70509 13.3 5.68329C12 5.54996 10.8 6.44163 10.1083 6.44163C9.41665 6.44163 8.44165 5.69996 7.35832 5.71663C6.65009 5.73996 5.96 5.94644 5.35536 6.31595C4.75072 6.68545 4.25216 7.20536 3.90832 7.82496C2.44165 10.375 3.53332 14.1666 4.99999 16.225C5.66665 17.2333 6.49999 18.375 7.59999 18.3333C8.69999 18.2916 9.05832 17.65 10.3333 17.65C11.6083 17.65 12 18.3333 13.0833 18.3083C14.1667 18.2833 14.9333 17.275 15.6333 16.2666C16.1292 15.5346 16.5165 14.7346 16.7833 13.8916C16.1229 13.61 15.5594 13.141 15.1625 12.5427C14.7656 11.9444 14.5527 11.2429 14.55 10.525Z" fill="#1E1147"/>
</svg>
