<svg width="20" height="20" viewBox="0 0 20 20" fill="none" xmlns="http://www.w3.org/2000/svg">
<mask id="path-1-inside-1_10_48" fill="white">
<path d="M0.400024 10.4H17.8344L15.3172 12.9172L15.8828 13.4828L19.3656 10L15.8828 6.51721L15.3172 7.08281L17.8344 9.60001H0.400024V10.4Z"/>
</mask>
<path d="M0.400024 10.4H17.8344L15.3172 12.9172L15.8828 13.4828L19.3656 10L15.8828 6.51721L15.3172 7.08281L17.8344 9.60001H0.400024V10.4Z" fill="white"/>
<path d="M0.400024 10.4H-1.59998V12.4H0.400024V10.4ZM17.8344 10.4L19.2486 11.8142L22.6629 8.40001H17.8344V10.4ZM15.3172 12.9172L13.903 11.503L12.4888 12.9172L13.903 14.3314L15.3172 12.9172ZM15.8828 13.4828L14.4686 14.897L15.8828 16.3112L17.297 14.897L15.8828 13.4828ZM19.3656 10L20.7798 11.4142L22.1941 10L20.7798 8.5858L19.3656 10ZM15.8828 6.51721L17.297 5.103L15.8828 3.68878L14.4686 5.103L15.8828 6.51721ZM15.3172 7.08281L13.903 5.6686L12.4888 7.08281L13.903 8.49703L15.3172 7.08281ZM17.8344 9.60001V11.6H22.6629L19.2486 8.1858L17.8344 9.60001ZM0.400024 9.60001V7.60001H-1.59998V9.60001H0.400024ZM0.400024 12.4H17.8344V8.40001H0.400024V12.4ZM16.4202 8.9858L13.903 11.503L16.7314 14.3314L19.2486 11.8142L16.4202 8.9858ZM13.903 14.3314L14.4686 14.897L17.297 12.0686L16.7314 11.503L13.903 14.3314ZM17.297 14.897L20.7798 11.4142L17.9514 8.5858L14.4686 12.0686L17.297 14.897ZM20.7798 8.5858L17.297 5.103L14.4686 7.93143L17.9514 11.4142L20.7798 8.5858ZM14.4686 5.103L13.903 5.6686L16.7314 8.49703L17.297 7.93143L14.4686 5.103ZM13.903 8.49703L16.4202 11.0142L19.2486 8.1858L16.7314 5.6686L13.903 8.49703ZM17.8344 7.60001H0.400024V11.6H17.8344V7.60001ZM-1.59998 9.60001V10.4H2.40002V9.60001H-1.59998Z" fill="white" mask="url(#path-1-inside-1_10_48)"/>
</svg>
