<svg width="15" height="15" viewBox="0 0 15 15" fill="none" xmlns="http://www.w3.org/2000/svg">
<path d="M7.57153 13.9991C6.72258 14.0007 5.88169 13.8345 5.09718 13.5101C4.31267 13.1856 3.60001 12.7094 3.00015 12.1086C0.479116 9.58758 0.479116 5.48586 3.00015 2.96482C3.59912 2.36249 4.31161 1.88494 5.09637 1.55981C5.88114 1.23469 6.7226 1.06844 7.57205 1.07069C9.29912 1.07069 10.9227 1.7431 12.1434 2.96482C13.3646 4.18603 14.0376 5.80965 14.0376 7.53672C14.0376 9.26379 13.3652 10.8874 12.1434 12.1086C11.5435 12.7093 10.8307 13.1856 10.0461 13.51C9.26152 13.8345 8.42055 14.0007 7.57153 13.9991ZM7.57205 2.10517C6.85848 2.10314 6.1516 2.24273 5.49235 2.51584C4.83311 2.78894 4.23461 3.19015 3.73153 3.6962C2.70584 4.72189 2.14101 6.08586 2.14101 7.53672C2.14101 8.98758 2.70584 10.351 3.73153 11.3772C5.84912 13.4948 9.29498 13.4953 11.412 11.3772C12.4377 10.3515 13.0031 8.98758 13.0031 7.53672C13.0031 6.08586 12.4383 4.72241 11.412 3.6962C10.909 3.1903 10.3105 2.78919 9.6514 2.51609C8.99226 2.243 8.28551 2.10333 7.57205 2.10517Z" fill="black"/>
<path d="M5.37626 10.2481C5.27387 10.2483 5.17371 10.2181 5.08851 10.1613C5.00331 10.1045 4.93691 10.0237 4.89773 9.92911C4.85854 9.83451 4.84835 9.73039 4.86844 9.62999C4.88854 9.52958 4.93801 9.43741 5.01057 9.36517L9.39937 4.97638C9.44739 4.92836 9.5044 4.89026 9.56715 4.86427C9.62989 4.83828 9.69714 4.82491 9.76506 4.82491C9.83297 4.82491 9.90022 4.83828 9.96297 4.86427C10.0257 4.89026 10.0827 4.92836 10.1307 4.97638C10.1788 5.0244 10.2169 5.08141 10.2429 5.14416C10.2688 5.2069 10.2822 5.27415 10.2822 5.34207C10.2822 5.40998 10.2688 5.47723 10.2429 5.53998C10.2169 5.60272 10.1788 5.65974 10.1307 5.70776L5.74195 10.0966C5.69405 10.1447 5.63707 10.183 5.5743 10.209C5.51152 10.235 5.44421 10.2483 5.37626 10.2481Z" fill="black"/>
<path d="M9.76533 10.2481C9.6974 10.2482 9.63012 10.2348 9.56737 10.2088C9.50461 10.1828 9.44761 10.1447 9.39964 10.0966L5.01085 5.70776C4.96283 5.65974 4.92473 5.60272 4.89874 5.53998C4.87275 5.47723 4.85938 5.40998 4.85938 5.34207C4.85937 5.27415 4.87275 5.2069 4.89874 5.14416C4.92473 5.08141 4.96283 5.0244 5.01085 4.97638C5.05887 4.92836 5.11588 4.89026 5.17863 4.86427C5.24137 4.83828 5.30862 4.82491 5.37654 4.82491C5.44445 4.82491 5.5117 4.83828 5.57445 4.86427C5.63719 4.89026 5.6942 4.92836 5.74223 4.97638L10.131 9.36517C10.2036 9.43741 10.2531 9.52959 10.2732 9.62999C10.2932 9.7304 10.2831 9.83451 10.2439 9.92911C10.2047 10.0237 10.1383 10.1045 10.0531 10.1613C9.96788 10.2181 9.86773 10.2483 9.76533 10.2481Z" fill="black"/>
</svg>
