<svg width="15" height="15" viewBox="0 0 15 15" fill="none" xmlns="http://www.w3.org/2000/svg">
<g clip-path="url(#clip0_396_62)">
<path d="M7.53906 0C3.39719 0 0.0390625 3.35812 0.0390625 7.5C0.0390625 11.6419 3.39719 15 7.53906 15C11.6809 15 15.0391 11.6419 15.0391 7.5C15.0391 3.35812 11.6809 0 7.53906 0ZM11.0134 5.42531L7.42094 10.9163C7.42 10.9172 7.41812 10.9181 7.41812 10.9191C7.39937 10.9472 7.38906 10.9791 7.36562 11.0053C7.33281 11.0409 7.29062 11.0597 7.25312 11.0869C7.24375 11.0934 7.23437 11.1009 7.22406 11.1075C7.16594 11.1441 7.10594 11.1684 7.04031 11.1844C7.01875 11.19 6.99906 11.1956 6.97656 11.1994C6.92435 11.2066 6.87144 11.2072 6.81906 11.2013C6.78207 11.1989 6.74536 11.1933 6.70937 11.1844C6.67225 11.1732 6.63617 11.1587 6.60156 11.1412C6.57156 11.1272 6.53969 11.1234 6.51156 11.1056C6.49094 11.0925 6.47969 11.0719 6.46187 11.0559C6.45437 11.0494 6.445 11.0475 6.4375 11.0409L4.34594 9.10687C4.22196 8.98783 4.14963 8.8249 4.1445 8.6531C4.13937 8.4813 4.20185 8.31435 4.3185 8.18812C4.43515 8.06189 4.59667 7.98646 4.76834 7.97805C4.94001 7.96964 5.10813 8.02891 5.23656 8.14312L6.75063 9.54375L9.91469 4.70719C10.0099 4.56148 10.1591 4.45958 10.3295 4.42389C10.4999 4.3882 10.6774 4.42165 10.8231 4.51687C10.9688 4.6121 11.0707 4.76131 11.1064 4.93168C11.1421 5.10204 11.1087 5.27961 11.0134 5.42531Z" fill="#008E3B"/>
</g>
<defs>
<clipPath id="clip0_396_62">
<rect width="15" height="15" fill="white"/>
</clipPath>
</defs>
</svg>
