<svg width="15" height="15" viewBox="0 0 15 15" fill="none" xmlns="http://www.w3.org/2000/svg">
<g clip-path="url(#clip0_126_895)">
<path d="M7.53931 0C3.39743 0 0.0393066 3.35812 0.0393066 7.5C0.0393066 11.6419 3.39743 15 7.53931 15C11.6812 15 15.0393 11.6419 15.0393 7.5C15.0393 3.35812 11.6812 0 7.53931 0ZM11.0137 5.42531L7.42118 10.9163C7.42024 10.9172 7.41837 10.9181 7.41837 10.9191C7.39962 10.9472 7.38931 10.9791 7.36587 11.0053C7.33306 11.0409 7.29087 11.0597 7.25337 11.0869C7.24399 11.0934 7.23462 11.1009 7.22431 11.1075C7.16618 11.1441 7.10618 11.1684 7.04056 11.1844C7.01899 11.19 6.99931 11.1956 6.97681 11.1994C6.92459 11.2066 6.87168 11.2072 6.81931 11.2013C6.78231 11.1989 6.7456 11.1933 6.70962 11.1844C6.67249 11.1732 6.63641 11.1587 6.60181 11.1412C6.57181 11.1272 6.53993 11.1234 6.51181 11.1056C6.49118 11.0925 6.47993 11.0719 6.46212 11.0559C6.45462 11.0494 6.44524 11.0475 6.43774 11.0409L4.34618 9.10687C4.22221 8.98783 4.14988 8.8249 4.14475 8.6531C4.13962 8.4813 4.20209 8.31435 4.31874 8.18812C4.43539 8.06189 4.59691 7.98646 4.76858 7.97805C4.94025 7.96964 5.10837 8.02891 5.23681 8.14312L6.75087 9.54375L9.91493 4.70719C10.0102 4.56148 10.1594 4.45958 10.3297 4.42389C10.5001 4.3882 10.6777 4.42165 10.8234 4.51687C10.9691 4.6121 11.071 4.76131 11.1067 4.93168C11.1424 5.10204 11.1089 5.27961 11.0137 5.42531Z" fill="#6050B5"/>
</g>
<defs>
<clipPath id="clip0_126_895">
<rect width="15" height="15" fill="white"/>
</clipPath>
</defs>
</svg>
