<svg width="20" height="20" viewBox="0 0 20 20" fill="none" xmlns="http://www.w3.org/2000/svg">
<path d="M14.45 4.55008C14.2522 4.55008 14.0589 4.60873 13.8945 4.71861C13.73 4.82849 13.6018 4.98467 13.5261 5.1674C13.4505 5.35012 13.4306 5.55119 13.4692 5.74517C13.5078 5.93915 13.6031 6.11734 13.7429 6.25719C13.8828 6.39704 14.061 6.49228 14.2549 6.53087C14.4489 6.56945 14.65 6.54965 14.8327 6.47396C15.0154 6.39827 15.1716 6.2701 15.2815 6.10565C15.3914 5.9412 15.45 5.74786 15.45 5.55008C15.45 5.28486 15.3447 5.03051 15.1571 4.84297C14.9696 4.65544 14.7152 4.55008 14.45 4.55008ZM18.2834 6.56675C18.2671 5.87533 18.1377 5.19125 17.9 4.54175C17.6881 3.98603 17.3583 3.48281 16.9334 3.06675C16.5207 2.6396 16.0163 2.3119 15.4584 2.10841C14.8106 1.86355 14.1257 1.73109 13.4334 1.71675C12.55 1.66675 12.2667 1.66675 10 1.66675C7.73335 1.66675 7.45002 1.66675 6.56669 1.71675C5.87431 1.73109 5.18947 1.86355 4.54169 2.10841C3.98475 2.31396 3.4808 2.64138 3.06669 3.06675C2.63954 3.4794 2.31183 3.98378 2.10835 4.54175C1.86349 5.18953 1.73103 5.87438 1.71669 6.56675C1.66669 7.45008 1.66669 7.73342 1.66669 10.0001C1.66669 12.2667 1.66669 12.5501 1.71669 13.4334C1.73103 14.1258 1.86349 14.8106 2.10835 15.4584C2.31183 16.0164 2.63954 16.5208 3.06669 16.9334C3.4808 17.3588 3.98475 17.6862 4.54169 17.8917C5.18947 18.1366 5.87431 18.2691 6.56669 18.2834C7.45002 18.3334 7.73335 18.3334 10 18.3334C12.2667 18.3334 12.55 18.3334 13.4334 18.2834C14.1257 18.2691 14.8106 18.1366 15.4584 17.8917C16.0163 17.6883 16.5207 17.3606 16.9334 16.9334C17.3602 16.5189 17.6903 16.0152 17.9 15.4584C18.1377 14.8089 18.2671 14.1248 18.2834 13.4334C18.2834 12.5501 18.3334 12.2667 18.3334 10.0001C18.3334 7.73342 18.3334 7.45008 18.2834 6.56675ZM16.7834 13.3334C16.7773 13.8624 16.6815 14.3865 16.5 14.8834C16.367 15.2461 16.1533 15.5738 15.875 15.8417C15.6047 16.1172 15.2777 16.3304 14.9167 16.4667C14.4198 16.6482 13.8957 16.744 13.3667 16.7501C12.5334 16.7917 12.225 16.8001 10.0334 16.8001C7.84169 16.8001 7.53335 16.8001 6.70002 16.7501C6.15076 16.7604 5.60385 16.6758 5.08335 16.5001C4.73817 16.3568 4.42615 16.1441 4.16669 15.8751C3.89009 15.6074 3.67906 15.2794 3.55002 14.9167C3.34657 14.4127 3.23372 13.8767 3.21669 13.3334C3.21669 12.5001 3.16669 12.1917 3.16669 10.0001C3.16669 7.80841 3.16669 7.50008 3.21669 6.66675C3.22042 6.12596 3.31915 5.59004 3.50835 5.08341C3.65506 4.73167 3.88024 4.41813 4.16669 4.16675C4.41986 3.88022 4.73276 3.65266 5.08335 3.50008C5.59131 3.31678 6.12669 3.22098 6.66669 3.21675C7.50002 3.21675 7.80835 3.16675 10 3.16675C12.1917 3.16675 12.5 3.16675 13.3334 3.21675C13.8623 3.22282 14.3864 3.31862 14.8834 3.50008C15.262 3.64062 15.6019 3.86912 15.875 4.16675C16.1481 4.42273 16.3615 4.73569 16.5 5.08341C16.6852 5.59086 16.7811 6.12656 16.7834 6.66675C16.825 7.50008 16.8334 7.80841 16.8334 10.0001C16.8334 12.1917 16.825 12.5001 16.7834 13.3334ZM10 5.72508C9.15486 5.72673 8.32916 5.97885 7.62723 6.4496C6.92531 6.92034 6.37867 7.58858 6.05638 8.36988C5.7341 9.15117 5.65062 10.0105 5.81652 10.8392C5.98241 11.6679 6.39022 12.4289 6.98842 13.0259C7.58662 13.6229 8.34836 14.0293 9.1774 14.1935C10.0064 14.3578 10.8656 14.2727 11.6462 13.9489C12.4269 13.6251 13.0941 13.0771 13.5635 12.3743C14.0328 11.6714 14.2834 10.8452 14.2834 10.0001C14.2845 9.43767 14.1744 8.88059 13.9594 8.36088C13.7444 7.84117 13.4288 7.36909 13.0307 6.97179C12.6327 6.57449 12.16 6.25981 11.6399 6.04586C11.1197 5.8319 10.5624 5.72288 10 5.72508ZM10 12.7751C9.45118 12.7751 8.91466 12.6123 8.45831 12.3074C8.00197 12.0025 7.64629 11.5691 7.43625 11.062C7.22622 10.555 7.17127 9.997 7.27834 9.45871C7.38542 8.92041 7.64971 8.42595 8.0378 8.03786C8.42589 7.64977 8.92035 7.38548 9.45865 7.2784C9.99694 7.17133 10.5549 7.22628 11.062 7.43632C11.569 7.64635 12.0024 8.00203 12.3073 8.45837C12.6123 8.91472 12.775 9.45124 12.775 10.0001C12.775 10.3645 12.7032 10.7253 12.5638 11.062C12.4243 11.3987 12.2199 11.7046 11.9622 11.9623C11.7046 12.22 11.3986 12.4244 11.062 12.5638C10.7253 12.7033 10.3644 12.7751 10 12.7751Z" fill="white"/>
</svg>
