<svg width="20" height="20" viewBox="0 0 20 20" fill="none" xmlns="http://www.w3.org/2000/svg">
<path d="M6.25049 7.50011C6.25029 7.50011 6.25014 7.50011 6.24999 7.50011H2.91665C2.68665 7.49995 2.50014 7.68632 2.49999 7.91627C2.49999 7.91647 2.49999 7.91662 2.49999 7.91677V17.9168C2.49983 18.1468 2.68619 18.3333 2.91614 18.3334C2.91635 18.3334 2.9165 18.3334 2.91665 18.3334H6.24999C6.47999 18.3336 6.6665 18.1472 6.66665 17.9172C6.66665 17.9171 6.66665 17.9169 6.66665 17.9168V7.91677C6.6668 7.68677 6.48044 7.50026 6.25049 7.50011ZM5.83332 17.5001H3.33332V8.33344H5.83332V17.5001ZM15 7.50011C14.096 7.50016 13.2172 7.79852 12.5 8.3489V7.91677C12.5001 7.68677 12.3138 7.50026 12.0838 7.50011C12.0836 7.50011 12.0835 7.50011 12.0833 7.50011H8.74999C8.51998 7.49995 8.33347 7.68632 8.33332 7.91627C8.33332 7.91647 8.33332 7.91662 8.33332 7.91677V17.9168C8.33317 18.1468 8.51953 18.3333 8.74953 18.3334C8.74968 18.3334 8.74983 18.3334 8.74999 18.3334H12.0833C12.3133 18.3336 12.4998 18.1472 12.5 17.9172C12.5 17.9171 12.5 17.9169 12.5 17.9168V13.3334C12.5 12.6431 13.0596 12.0834 13.75 12.0834C14.4403 12.0834 15 12.6431 15 13.3334V17.9168C14.9998 18.1468 15.1862 18.3333 15.4162 18.3334C15.4163 18.3334 15.4165 18.3334 15.4167 18.3334H18.75C18.98 18.3336 19.1665 18.1472 19.1667 17.9172C19.1667 17.9171 19.1667 17.9169 19.1667 17.9168V11.6668C19.164 9.36671 17.3 7.5028 15 7.50011ZM18.3333 17.5001H15.8333V13.3334C15.8333 12.1828 14.9006 11.2501 13.75 11.2501C12.5994 11.2501 11.6667 12.1828 11.6667 13.3334V17.5001H9.16665V8.33344H11.6667V9.33604C11.6667 9.5131 11.7787 9.67077 11.9458 9.72911C12.1126 9.78923 12.2992 9.73577 12.4089 9.59646C13.5443 8.15745 15.6313 7.91143 17.0703 9.04694C17.8719 9.67947 18.3377 10.6457 18.3333 11.6668V17.5001ZM4.88997 1.6683C4.79196 1.66143 4.69359 1.66092 4.59553 1.66677C3.33779 1.58087 2.24857 2.53083 2.16266 3.78856C2.15921 3.83917 2.15748 3.88983 2.15737 3.94054C2.14654 5.18759 3.14869 6.20728 4.39574 6.21811C4.44665 6.21857 4.49751 6.21725 4.54833 6.21425H4.57193C5.82727 6.30209 6.91608 5.35564 7.00392 4.1003C7.09176 2.84496 6.14531 1.75614 4.88997 1.6683ZM4.86118 5.38331C4.76495 5.39216 4.668 5.39139 4.57193 5.38092H4.54833C3.75156 5.44215 3.05607 4.84594 2.99483 4.04918C2.93359 3.25247 3.5298 2.55692 4.32656 2.49568C4.41618 2.48882 4.50621 2.49029 4.59553 2.50011C5.39168 2.42676 6.09658 3.0127 6.16998 3.80885C6.24332 4.60506 5.65738 5.30996 4.86118 5.38331Z" fill="white"/>
</svg>
