<svg width="75" height="75" viewBox="0 0 75 75" fill="none" xmlns="http://www.w3.org/2000/svg">
<circle cx="37.5" cy="37.5" r="37.5" fill="#0C6525"/>
<path d="M45.2583 38.7809C43.9302 39.9821 39.5759 45.0627 38.7483 45.9908C38.5581 46.2108 38.2881 46.3309 37.9983 46.3309C37.7083 46.3309 37.4383 46.2008 37.2483 45.9908C36.55 45.2209 39.7782 48.78 30.4183 38.4608C27.3713 35.2006 29.6097 29.6709 34.0083 29.6709C35.5684 29.6709 37.0581 30.4508 38.0083 31.7108C38.9483 30.4508 40.4383 29.6709 41.9983 29.6709C46.6006 29.6709 48.7518 35.6731 45.2583 38.7809Z" fill="white"/>
<path d="M59.026 20.3965C55.5426 17.5214 50.2297 17.6691 45.7838 18.6519C43.6278 15.7189 40.9437 14 38.0016 14C35.0595 14 32.3754 15.7189 30.2194 18.6519C25.7739 17.6692 20.4608 17.5213 16.9772 20.3965C11.798 24.6743 14.1935 32.3475 17.9445 38.0005C14.1979 43.6475 11.8017 51.3296 16.9772 55.6045C20.4739 58.4905 25.8085 58.323 30.2194 57.3483C32.3754 60.2811 35.0595 62 38.0016 62C40.9437 62 43.6278 60.2811 45.7838 57.3483C54.213 59.211 62.0016 56.8591 62.0016 48.877C62.0016 45.5872 60.5817 41.8032 58.0587 38.0005C61.8053 32.3542 64.2011 24.671 59.026 20.3965ZM57.7526 21.9395C61.8176 25.2968 59.6771 31.7473 56.8336 36.259C55.0084 33.832 52.7418 31.4303 50.1212 29.1709C49.4215 25.8142 48.3312 22.846 46.9459 20.4443C50.4862 19.765 54.9713 19.6433 57.7526 21.9395ZM48.0016 46.0107C44.8366 48.6239 41.4149 50.811 38.0016 52.4695C34.5883 50.811 31.1666 48.6239 28.0016 46.0107C27.9142 45.9386 27.8322 45.8643 27.7457 45.7919C27.2677 43.3562 27.0016 40.7277 27.0016 38C27.0016 35.2723 27.2677 32.6438 27.7457 30.2081C30.9521 27.518 34.458 25.2523 38.0016 23.5305C41.5191 25.2396 45.0278 27.4986 48.2575 30.2083C48.7355 32.6438 49.0016 35.2723 49.0016 38C49.0016 40.7277 48.7355 43.3562 48.2575 45.7919C48.171 45.8644 48.089 45.9386 48.0016 46.0107ZM47.4835 48.9627C46.7948 51.2944 45.8986 53.3659 44.8488 55.0667C43.3746 54.6707 41.8641 54.1523 40.3378 53.5194C42.7694 52.2365 45.1791 50.7056 47.4835 48.9627ZM35.6654 53.5194C34.139 54.1523 32.6285 54.6707 31.1544 55.0667C30.1046 53.3658 29.2084 51.2944 28.5197 48.9627C30.8241 50.7056 33.2338 52.2365 35.6654 53.5194ZM25.3554 43.6665C23.4149 41.8201 21.7401 39.9082 20.3561 38.0004C21.7401 36.0925 23.4149 34.1805 25.3554 32.3339C25.1261 34.146 25.0016 36.0408 25.0016 38C25.0016 39.9594 25.1261 41.8542 25.3554 43.6665ZM28.5197 27.0373C29.2084 24.7056 30.1046 22.6341 31.1544 20.9334C32.6288 21.3293 34.1393 21.8477 35.6657 22.4807C33.2338 23.7637 30.8241 25.2946 28.5197 27.0373ZM40.3375 22.4807C41.8639 21.8477 43.3744 21.3293 44.8488 20.9334C45.8986 22.6342 46.7948 24.7056 47.4835 27.0373C45.1791 25.2946 42.7694 23.7637 40.3375 22.4807ZM50.6478 32.3339C52.5883 34.1805 54.2631 36.0925 55.6471 38.0004C54.2631 39.9082 52.5883 41.8201 50.6478 43.6665C50.8771 41.8542 51.0016 39.9594 51.0016 38C51.0016 36.0408 50.8771 34.146 50.6478 32.3339ZM38.0016 16C40.0397 16 41.9689 17.1782 43.6266 19.2036C41.7831 19.7423 39.8951 20.4582 38.0016 21.3291C36.108 20.4582 34.2201 19.7423 32.3766 19.2036C34.0343 17.1782 35.9635 16 38.0016 16ZM18.2506 21.9395C21.0311 19.644 25.5147 19.7646 29.0573 20.4443C27.672 22.8459 26.5817 25.8142 25.882 29.1709C23.2614 31.4303 20.9948 33.832 19.1696 36.259C16.3306 31.7544 14.184 25.2981 18.2506 21.9395ZM18.2506 54.0615C14.1857 50.7042 16.3264 44.2536 19.1696 39.7417C20.9948 42.1683 23.2614 44.5698 25.882 46.8291C26.5817 50.1857 27.672 53.154 29.0573 55.5557C25.5067 56.2369 21.0246 56.3531 18.2506 54.0615ZM38.0016 60C35.9638 60 34.0343 58.8219 32.3768 56.7966C34.2201 56.2581 36.108 55.542 38.0016 54.6711C39.8951 55.542 41.7831 56.258 43.6264 56.7966C41.9689 58.8219 40.0394 60 38.0016 60ZM60.0016 48.8769C60.0016 55.4436 53.4561 56.8048 46.9459 55.5557C48.3312 53.154 49.4215 50.1857 50.1212 46.8291C52.7418 44.5698 55.0084 42.1683 56.8336 39.7417C58.8707 42.9745 60.0016 46.134 60.0016 48.8769Z" fill="white"/>
</svg>
