<svg width="75" height="75" viewBox="0 0 75 75" fill="none" xmlns="http://www.w3.org/2000/svg">
<circle cx="37.5" cy="37.5" r="37.5" fill="#0C6525"/>
<path d="M48.4789 56.063H27.5202C26.3408 56.063 25.2096 56.5316 24.3756 57.3656C23.5416 58.1996 23.0731 59.3307 23.0731 60.5102V61.0765H52.926V60.5102C52.926 59.3307 52.4575 58.1996 51.6235 57.3656C50.7895 56.5316 49.6583 56.063 48.4789 56.063V56.063ZM43.15 51.0505H32.8491C31.6696 51.0505 30.5385 51.5191 29.7045 52.3531C28.8705 53.1871 28.4019 54.3182 28.4019 55.4977V56.063H47.5962V55.4977C47.5962 54.3182 47.1276 53.1871 46.2936 52.3531C45.4597 51.5191 44.3285 51.0505 43.1491 51.0505H43.15ZM38 51.0505V20.3419V51.0505ZM59.5923 17.6323H40.7096H59.5923ZM35.2904 17.6323H16.4077H35.2904ZM53.9568 40.6351C49.776 40.6351 47.0568 36.2361 48.9269 32.4967L53.9568 17.6284L58.9866 32.4967C60.8568 36.2361 58.1375 40.6351 53.9577 40.6351H53.9568ZM22.0423 40.6351C17.8616 40.6351 15.1423 36.2361 17.0125 32.4967L22.0414 17.6284L27.0721 32.4967C28.9414 36.2361 26.2231 40.6351 22.0423 40.6351V40.6351Z" stroke="white" stroke-width="2" stroke-miterlimit="10" stroke-linecap="round" stroke-linejoin="round"/>
<path d="M38.0001 20.3421C39.4966 20.3421 40.7098 19.1289 40.7098 17.6325C40.7098 16.136 39.4966 14.9229 38.0001 14.9229C36.5037 14.9229 35.2905 16.136 35.2905 17.6325C35.2905 19.1289 36.5037 20.3421 38.0001 20.3421Z" stroke="white" stroke-width="2" stroke-miterlimit="10" stroke-linecap="round" stroke-linejoin="round"/>
<path d="M48.4059 34.1343H59.5078M16.4905 34.1343H27.5934H16.4905Z" stroke="white" stroke-width="2" stroke-miterlimit="10" stroke-linecap="round" stroke-linejoin="round"/>
</svg>
